<mxfile host="65bd71144e" modified="2020-11-09T13:40:44.407Z" agent="5.0 (Macintosh; Intel Mac OS X 10_15_7) AppleWebKit/537.36 (KHTML, like Gecko) Code/1.51.0 Chrome/83.0.4103.122 Electron/9.3.3 Safari/537.36" etag="Ms1yau37MFuAIdMG2f3X" version="13.6.5">
    <diagram id="EjWy8Ps37LOMFAmpXLRY" name="Page-1">
        <mxGraphModel dx="582" dy="680" grid="1" gridSize="10" guides="1" tooltips="1" connect="1" arrows="1" fold="1" page="1" pageScale="1" pageWidth="850" pageHeight="1100" math="0" shadow="0">
            <root>
                <mxCell id="0"/>
                <mxCell id="1" parent="0"/>
                <mxCell id="jSiafwT9mMUIdKE4EMSA-13" value="DOM" style="html=1;fillColor=#fff2cc;strokeColor=#d6b656;" parent="1" vertex="1">
                    <mxGeometry x="640" y="300" width="110" height="50" as="geometry"/>
                </mxCell>
                <mxCell id="jSiafwT9mMUIdKE4EMSA-14" value="Reducer" style="html=1;fillColor=#f5f5f5;strokeColor=#666666;fontColor=#333333;" parent="1" vertex="1">
                    <mxGeometry x="160" y="180" width="110" height="50" as="geometry"/>
                </mxCell>
                <mxCell id="jSiafwT9mMUIdKE4EMSA-15" value="Range Slider architecture diagram" style="text;strokeColor=none;fillColor=none;html=1;fontSize=24;fontStyle=1;verticalAlign=middle;align=center;" parent="1" vertex="1">
                    <mxGeometry x="385" y="30" width="100" height="40" as="geometry"/>
                </mxCell>
                <mxCell id="jSiafwT9mMUIdKE4EMSA-21" value="" style="endArrow=classic;html=1;entryX=1;entryY=0.5;entryDx=0;entryDy=0;exitX=1;exitY=0.5;exitDx=0;exitDy=0;" parent="1" source="jSiafwT9mMUIdKE4EMSA-13" target="jSiafwT9mMUIdKE4EMSA-10" edge="1">
                    <mxGeometry relative="1" as="geometry">
                        <mxPoint x="600" y="400" as="sourcePoint"/>
                        <mxPoint x="790" y="250" as="targetPoint"/>
                        <Array as="points">
                            <mxPoint x="830" y="325"/>
                            <mxPoint x="830" y="224"/>
                        </Array>
                    </mxGeometry>
                </mxCell>
                <mxCell id="jSiafwT9mMUIdKE4EMSA-22" value="User interaction&amp;nbsp;" style="edgeLabel;resizable=0;html=1;align=center;verticalAlign=middle;rotation=-90;" parent="jSiafwT9mMUIdKE4EMSA-21" connectable="0" vertex="1">
                    <mxGeometry relative="1" as="geometry">
                        <mxPoint x="-10" y="-9" as="offset"/>
                    </mxGeometry>
                </mxCell>
                <mxCell id="jSiafwT9mMUIdKE4EMSA-23" style="edgeStyle=orthogonalEdgeStyle;rounded=0;orthogonalLoop=1;jettySize=auto;html=1;exitX=0;exitY=0.5;exitDx=0;exitDy=0;entryX=1;entryY=0.5;entryDx=0;entryDy=0;" parent="1" source="jSiafwT9mMUIdKE4EMSA-10" target="jSiafwT9mMUIdKE4EMSA-6" edge="1">
                    <mxGeometry relative="1" as="geometry"/>
                </mxCell>
                <mxCell id="jSiafwT9mMUIdKE4EMSA-24" value="" style="endArrow=classic;html=1;" parent="1" edge="1">
                    <mxGeometry relative="1" as="geometry">
                        <mxPoint x="300" y="457.5" as="sourcePoint"/>
                        <mxPoint x="421" y="248" as="targetPoint"/>
                        <Array as="points">
                            <mxPoint x="360" y="457.5"/>
                            <mxPoint x="360" y="312.5"/>
                            <mxPoint x="360" y="248"/>
                        </Array>
                    </mxGeometry>
                </mxCell>
                <mxCell id="jSiafwT9mMUIdKE4EMSA-25" value="Push next state to subscriber&amp;nbsp;" style="edgeLabel;resizable=0;html=1;align=center;verticalAlign=middle;rotation=-90;" parent="jSiafwT9mMUIdKE4EMSA-24" connectable="0" vertex="1">
                    <mxGeometry relative="1" as="geometry">
                        <mxPoint x="10" y="7.5" as="offset"/>
                    </mxGeometry>
                </mxCell>
                <mxCell id="jSiafwT9mMUIdKE4EMSA-26" value="" style="endArrow=classic;html=1;exitX=0.169;exitY=1.025;exitDx=0;exitDy=0;exitPerimeter=0;entryX=0;entryY=0.5;entryDx=0;entryDy=0;" parent="1" source="jSiafwT9mMUIdKE4EMSA-8" target="jSiafwT9mMUIdKE4EMSA-10" edge="1">
                    <mxGeometry relative="1" as="geometry">
                        <mxPoint x="470" y="430" as="sourcePoint"/>
                        <mxPoint x="570" y="430" as="targetPoint"/>
                        <Array as="points">
                            <mxPoint x="447" y="320"/>
                            <mxPoint x="590" y="320"/>
                            <mxPoint x="590" y="224"/>
                        </Array>
                    </mxGeometry>
                </mxCell>
                <mxCell id="jSiafwT9mMUIdKE4EMSA-27" value="Every time render was called, update view" style="edgeLabel;resizable=0;html=1;align=center;verticalAlign=middle;" parent="jSiafwT9mMUIdKE4EMSA-26" connectable="0" vertex="1">
                    <mxGeometry relative="1" as="geometry">
                        <mxPoint x="-32" y="10" as="offset"/>
                    </mxGeometry>
                </mxCell>
                <mxCell id="jSiafwT9mMUIdKE4EMSA-29" value="View assigned to provider&lt;br&gt;and should pass some api that allow Provider communicate with DOM" style="text;html=1;strokeColor=none;fillColor=none;align=center;verticalAlign=middle;whiteSpace=wrap;rounded=0;" parent="1" vertex="1">
                    <mxGeometry x="620" y="120" width="160" height="60" as="geometry"/>
                </mxCell>
                <mxCell id="jSiafwT9mMUIdKE4EMSA-30" value="" style="endArrow=classic;html=1;exitX=0.219;exitY=1.115;exitDx=0;exitDy=0;exitPerimeter=0;entryX=0.136;entryY=-0.06;entryDx=0;entryDy=0;entryPerimeter=0;" parent="1" source="jSiafwT9mMUIdKE4EMSA-10" target="jSiafwT9mMUIdKE4EMSA-13" edge="1">
                    <mxGeometry relative="1" as="geometry">
                        <mxPoint x="630" y="260" as="sourcePoint"/>
                        <mxPoint x="730" y="260" as="targetPoint"/>
                    </mxGeometry>
                </mxCell>
                <mxCell id="jSiafwT9mMUIdKE4EMSA-31" value="Only View can interact with DOM" style="edgeLabel;resizable=0;html=1;align=center;verticalAlign=middle;" parent="jSiafwT9mMUIdKE4EMSA-30" connectable="0" vertex="1">
                    <mxGeometry relative="1" as="geometry">
                        <mxPoint x="25" as="offset"/>
                    </mxGeometry>
                </mxCell>
                <mxCell id="jSiafwT9mMUIdKE4EMSA-32" value="&lt;span style=&quot;color: rgb(0, 0, 0); font-family: helvetica; font-size: 12px; font-style: normal; font-weight: normal; letter-spacing: normal; text-align: center; text-indent: 0px; text-transform: none; word-spacing: 0px; background-color: rgb(248, 249, 250); text-decoration: none; display: inline; float: none;&quot;&gt;Provider can contain multiple View objects, and should pass data to them&lt;/span&gt;" style="text;html=1;strokeColor=none;fillColor=none;align=center;verticalAlign=middle;whiteSpace=wrap;rounded=0;" parent="1" vertex="1">
                    <mxGeometry x="420" y="110" width="160" height="50" as="geometry"/>
                </mxCell>
                <mxCell id="jSiafwT9mMUIdKE4EMSA-33" value="" style="endArrow=classic;html=1;exitX=0;exitY=0.5;exitDx=0;exitDy=0;entryX=1.006;entryY=0.383;entryDx=0;entryDy=0;entryPerimeter=0;" parent="1" source="jSiafwT9mMUIdKE4EMSA-8" target="jSiafwT9mMUIdKE4EMSA-4" edge="1">
                    <mxGeometry relative="1" as="geometry">
                        <mxPoint x="400" y="430" as="sourcePoint"/>
                        <mxPoint x="320" y="240" as="targetPoint"/>
                        <Array as="points">
                            <mxPoint x="330" y="240"/>
                            <mxPoint x="330" y="443"/>
                        </Array>
                    </mxGeometry>
                </mxCell>
                <mxCell id="jSiafwT9mMUIdKE4EMSA-34" value="Dispatch action" style="edgeLabel;resizable=0;html=1;align=center;verticalAlign=middle;rotation=-90;" parent="jSiafwT9mMUIdKE4EMSA-33" connectable="0" vertex="1">
                    <mxGeometry relative="1" as="geometry">
                        <mxPoint y="14" as="offset"/>
                    </mxGeometry>
                </mxCell>
                <mxCell id="jSiafwT9mMUIdKE4EMSA-35" value="&lt;span style=&quot;color: rgb(0 , 0 , 0) ; font-family: &amp;#34;helvetica&amp;#34; ; font-size: 12px ; font-style: normal ; font-weight: normal ; letter-spacing: normal ; text-align: center ; text-indent: 0px ; text-transform: none ; word-spacing: 0px ; background-color: rgb(248 , 249 , 250) ; text-decoration: none ; display: inline ; float: none&quot;&gt;Store contain all application data but it don't know how to handle it&lt;/span&gt;" style="text;html=1;strokeColor=none;fillColor=none;align=center;verticalAlign=middle;whiteSpace=wrap;rounded=0;" parent="1" vertex="1">
                    <mxGeometry x="140" y="310" width="160" height="50" as="geometry"/>
                </mxCell>
                <mxCell id="jSiafwT9mMUIdKE4EMSA-36" value="" style="endArrow=classic;html=1;entryX=0;entryY=0.5;entryDx=0;entryDy=0;exitX=0;exitY=0.5;exitDx=0;exitDy=0;" parent="1" source="jSiafwT9mMUIdKE4EMSA-4" target="jSiafwT9mMUIdKE4EMSA-14" edge="1">
                    <mxGeometry relative="1" as="geometry">
                        <mxPoint x="30" y="440" as="sourcePoint"/>
                        <mxPoint x="130" y="440" as="targetPoint"/>
                        <Array as="points">
                            <mxPoint x="50" y="450"/>
                            <mxPoint x="50" y="205"/>
                        </Array>
                    </mxGeometry>
                </mxCell>
                <mxCell id="jSiafwT9mMUIdKE4EMSA-37" value="When dispatch was called Store pass it to Reducer" style="edgeLabel;resizable=0;html=1;align=center;verticalAlign=middle;rotation=-90;" parent="jSiafwT9mMUIdKE4EMSA-36" connectable="0" vertex="1">
                    <mxGeometry relative="1" as="geometry">
                        <mxPoint x="-10" y="13" as="offset"/>
                    </mxGeometry>
                </mxCell>
                <mxCell id="jSiafwT9mMUIdKE4EMSA-38" value="&lt;span style=&quot;color: rgb(0 , 0 , 0) ; font-family: &amp;#34;helvetica&amp;#34; ; font-size: 12px ; font-style: normal ; font-weight: normal ; letter-spacing: normal ; text-align: center ; text-indent: 0px ; text-transform: none ; word-spacing: 0px ; background-color: rgb(248 , 249 , 250) ; text-decoration: none ; display: inline ; float: none&quot;&gt;Reducer is main function that can handle application data and produce next state on every call&lt;/span&gt;" style="text;html=1;strokeColor=none;fillColor=none;align=center;verticalAlign=middle;whiteSpace=wrap;rounded=0;" parent="1" vertex="1">
                    <mxGeometry x="140" y="125" width="160" height="50" as="geometry"/>
                </mxCell>
                <mxCell id="jSiafwT9mMUIdKE4EMSA-39" value="" style="endArrow=classic;html=1;exitX=0.5;exitY=1;exitDx=0;exitDy=0;entryX=0;entryY=0.5;entryDx=0;entryDy=0;" parent="1" source="jSiafwT9mMUIdKE4EMSA-14" target="jSiafwT9mMUIdKE4EMSA-2" edge="1">
                    <mxGeometry relative="1" as="geometry">
                        <mxPoint x="300" y="380" as="sourcePoint"/>
                        <mxPoint x="400" y="380" as="targetPoint"/>
                        <Array as="points">
                            <mxPoint x="215" y="290"/>
                            <mxPoint x="90" y="290"/>
                            <mxPoint x="90" y="399"/>
                        </Array>
                    </mxGeometry>
                </mxCell>
                <mxCell id="jSiafwT9mMUIdKE4EMSA-40" value="Next State" style="edgeLabel;resizable=0;html=1;align=center;verticalAlign=middle;" parent="jSiafwT9mMUIdKE4EMSA-39" connectable="0" vertex="1">
                    <mxGeometry relative="1" as="geometry">
                        <mxPoint x="47" as="offset"/>
                    </mxGeometry>
                </mxCell>
                <mxCell id="jSiafwT9mMUIdKE4EMSA-1" value="Store" style="swimlane;fontStyle=1;align=center;verticalAlign=top;childLayout=stackLayout;horizontal=1;startSize=26;horizontalStack=0;resizeParent=1;resizeParentMax=0;resizeLast=0;collapsible=1;marginBottom=0;fillColor=#d5e8d4;strokeColor=#82b366;" parent="1" vertex="1">
                    <mxGeometry x="140" y="360" width="160" height="120" as="geometry"/>
                </mxCell>
                <mxCell id="jSiafwT9mMUIdKE4EMSA-2" value="- state: any&#10;" style="text;strokeColor=none;fillColor=none;align=left;verticalAlign=top;spacingLeft=4;spacingRight=4;overflow=hidden;rotatable=0;points=[[0,0.5],[1,0.5]];portConstraint=eastwest;" parent="jSiafwT9mMUIdKE4EMSA-1" vertex="1">
                    <mxGeometry y="26" width="160" height="26" as="geometry"/>
                </mxCell>
                <mxCell id="jSiafwT9mMUIdKE4EMSA-3" value="" style="line;strokeWidth=1;fillColor=none;align=left;verticalAlign=middle;spacingTop=-1;spacingLeft=3;spacingRight=3;rotatable=0;labelPosition=right;points=[];portConstraint=eastwest;" parent="jSiafwT9mMUIdKE4EMSA-1" vertex="1">
                    <mxGeometry y="52" width="160" height="8" as="geometry"/>
                </mxCell>
                <mxCell id="jSiafwT9mMUIdKE4EMSA-4" value="+ getState()&#10;+ dispatch()&#10;+ subscribe()" style="text;strokeColor=none;fillColor=none;align=left;verticalAlign=top;spacingLeft=4;spacingRight=4;overflow=hidden;rotatable=0;points=[[0,0.5],[1,0.5]];portConstraint=eastwest;" parent="jSiafwT9mMUIdKE4EMSA-1" vertex="1">
                    <mxGeometry y="60" width="160" height="60" as="geometry"/>
                </mxCell>
                <mxCell id="jSiafwT9mMUIdKE4EMSA-5" value="Provider" style="swimlane;fontStyle=1;align=center;verticalAlign=top;childLayout=stackLayout;horizontal=1;startSize=26;horizontalStack=0;resizeParent=1;resizeParentMax=0;resizeLast=0;collapsible=1;marginBottom=0;fillColor=#f8cecc;strokeColor=#b85450;" parent="1" vertex="1">
                    <mxGeometry x="420" y="160" width="160" height="100" as="geometry"/>
                </mxCell>
                <mxCell id="jSiafwT9mMUIdKE4EMSA-6" value="- root: View" style="text;strokeColor=none;fillColor=none;align=left;verticalAlign=top;spacingLeft=4;spacingRight=4;overflow=hidden;rotatable=0;points=[[0,0.5],[1,0.5]];portConstraint=eastwest;" parent="jSiafwT9mMUIdKE4EMSA-5" vertex="1">
                    <mxGeometry y="26" width="160" height="26" as="geometry"/>
                </mxCell>
                <mxCell id="jSiafwT9mMUIdKE4EMSA-7" value="" style="line;strokeWidth=1;fillColor=none;align=left;verticalAlign=middle;spacingTop=-1;spacingLeft=3;spacingRight=3;rotatable=0;labelPosition=right;points=[];portConstraint=eastwest;" parent="jSiafwT9mMUIdKE4EMSA-5" vertex="1">
                    <mxGeometry y="52" width="160" height="8" as="geometry"/>
                </mxCell>
                <mxCell id="jSiafwT9mMUIdKE4EMSA-8" value="+ init()&#10;+ render()" style="text;strokeColor=none;fillColor=none;align=left;verticalAlign=top;spacingLeft=4;spacingRight=4;overflow=hidden;rotatable=0;points=[[0,0.5],[1,0.5]];portConstraint=eastwest;" parent="jSiafwT9mMUIdKE4EMSA-5" vertex="1">
                    <mxGeometry y="60" width="160" height="40" as="geometry"/>
                </mxCell>
                <mxCell id="jSiafwT9mMUIdKE4EMSA-9" value="View" style="swimlane;fontStyle=1;align=center;verticalAlign=top;childLayout=stackLayout;horizontal=1;startSize=26;horizontalStack=0;resizeParent=1;resizeParentMax=0;resizeLast=0;collapsible=1;marginBottom=0;fillColor=#dae8fc;strokeColor=#6c8ebf;" parent="1" vertex="1">
                    <mxGeometry x="620" y="185" width="160" height="52" as="geometry"/>
                </mxCell>
                <mxCell id="jSiafwT9mMUIdKE4EMSA-10" value="+ element: HTMLElement" style="text;strokeColor=none;fillColor=none;align=left;verticalAlign=top;spacingLeft=4;spacingRight=4;overflow=hidden;rotatable=0;points=[[0,0.5],[1,0.5]];portConstraint=eastwest;" parent="jSiafwT9mMUIdKE4EMSA-9" vertex="1">
                    <mxGeometry y="26" width="160" height="26" as="geometry"/>
                </mxCell>
            </root>
        </mxGraphModel>
    </diagram>
</mxfile>
